<svg width="30" height="30" viewBox="0 0 30 30" fill="none" xmlns="http://www.w3.org/2000/svg">
<path d="M38.8593 28.2654L30.1091 24.5154C29.7353 24.356 29.3199 24.3225 28.9254 24.4197C28.5308 24.5169 28.1786 24.7397 27.9216 25.0544L24.0465 29.7889C17.965 26.9215 13.0707 22.0272 10.2033 15.9457L14.9378 12.0706C15.2531 11.8141 15.4764 11.4618 15.5736 11.0671C15.6709 10.6724 15.6369 10.2567 15.4768 9.88306L11.7268 1.13291C11.5511 0.730093 11.2403 0.401209 10.8481 0.202966C10.4559 0.00472286 10.0068 -0.0504544 9.57829 0.0469487L1.45315 1.92198C1.03999 2.01739 0.671375 2.25002 0.407456 2.5819C0.143538 2.91379 -9.51743e-05 3.32533 4.73149e-08 3.74936C4.73149e-08 23.7888 16.2425 40 36.2506 40C36.6748 40.0003 37.0865 39.8567 37.4186 39.5928C37.7506 39.3289 37.9833 38.9601 38.0788 38.5468L39.9538 30.4217C40.0506 29.9911 39.9942 29.5402 39.7945 29.1466C39.5947 28.7531 39.264 28.4415 38.8593 28.2654Z" fill="black"/>
</svg>
