<svg width="70" height="50" viewBox="0 0 101 70" fill="none" xmlns="http://www.w3.org/2000/svg">
<path d="M68.8594 0H55.4375C54.1875 0 52.9844 0.546677 52.0625 1.53069L36.7031 17.931C36.6875 17.9492 36.6719 17.9857 36.6563 18.0039C34.0625 20.8466 34.1094 25.384 36.3281 28.2085C38.3125 30.7415 42.4844 31.4157 45.0938 28.7005C45.1094 28.6823 45.1406 28.6823 45.1562 28.6641L57.6406 15.3252C58.6563 14.25 60.25 14.3229 61.1719 15.5074C62.1094 16.6919 62.0312 18.5323 61.0156 19.6257L56.9375 23.9809L79.6875 45.5199C80.1406 45.9573 80.5469 46.4311 80.9219 46.9231V11.6624L72.3906 1.71292C71.4688 0.619567 70.1875 0 68.8594 0ZM85.9375 11.6989V52.4992C85.9375 55.7246 88.1719 58.3304 90.9375 58.3304H100.938V11.6989H85.9375ZM93.4375 52.4992C92.0625 52.4992 90.9375 51.1872 90.9375 49.5836C90.9375 47.98 92.0625 46.668 93.4375 46.668C94.8125 46.668 95.9375 47.98 95.9375 49.5836C95.9375 51.1872 94.8125 52.4992 93.4375 52.4992ZM0.9375 58.3122H10.9375C13.7031 58.3122 15.9375 55.7064 15.9375 52.481V11.6989H0.9375V58.3122ZM8.4375 46.668C9.8125 46.668 10.9375 47.98 10.9375 49.5836C10.9375 51.1872 9.8125 52.4992 8.4375 52.4992C7.0625 52.4992 5.9375 51.1872 5.9375 49.5836C5.9375 47.9618 7.0625 46.668 8.4375 46.668ZM76.5469 50.0574L53.2188 27.9716L48.5313 32.9828C43.8906 37.9211 36.7813 37.4474 32.6406 32.181C28.4375 26.8236 28.7656 18.5323 33.3281 13.6487L46.1094 0H33.0156C31.6875 0 30.4219 0.619567 29.4844 1.71292L20.9375 11.6624V52.4627H23.7969L37.9375 67.387C42.2188 71.4506 48.5156 70.6853 52 65.6923L52.0312 65.6559L54.8281 68.4804C57.3125 70.8493 60.9844 70.3937 63 67.4963L67.9063 60.4624L68.75 61.2642C70.8906 63.2869 74.0469 62.9225 75.7812 60.4078L77.2656 58.2757C79.0156 55.761 78.6875 52.0983 76.5469 50.0574Z" fill="#007AD3"/>
</svg>
