<svg width="70" height="70" viewBox="0 0 100 96" fill="none" xmlns="http://www.w3.org/2000/svg">
<path d="M43.7376 24.8997L30.4476 3.65113C29.9011 2.77703 29.128 2.0536 28.2035 1.55133C27.2791 1.04905 26.2348 0.785047 25.1723 0.785034H3.80411C1.31452 0.785034 -0.142715 3.47223 1.28376 5.42907L22.675 34.7466C28.3886 29.6249 35.6555 26.1096 43.7376 24.8997ZM96.071 0.785034H74.7028C72.5419 0.785034 70.5387 1.87319 69.4275 3.65113L56.1375 24.8997C64.2195 26.1096 71.4865 29.6249 77.2 34.7448L98.5913 5.42907C100.018 3.47223 98.5606 0.785034 96.071 0.785034ZM49.9375 30.2944C31.2512 30.2944 16.1021 44.8278 16.1021 62.7547C16.1021 80.6817 31.2512 95.215 49.9375 95.215C68.6239 95.215 83.7729 80.6817 83.7729 62.7547C83.7729 44.8278 68.6239 30.2944 49.9375 30.2944ZM67.7242 59.2984L60.4323 66.1151L62.1567 75.7462C62.4643 77.4725 60.5688 78.7912 58.9558 77.976L49.9375 73.4297L40.9212 77.976C39.3063 78.7968 37.4127 77.4707 37.7203 75.7462L39.4447 66.1151L32.1528 59.2984C30.8417 58.0738 31.5664 55.9362 33.3736 55.6854L43.4531 54.2763L47.9574 45.512C48.363 44.7226 49.1474 44.3335 49.9337 44.3335C50.7238 44.3335 51.514 44.7282 51.9196 45.512L56.4239 54.2763L66.5034 55.6854C68.3105 55.9362 69.0353 58.0738 67.7242 59.2984Z" fill="#007AD3"/>
</svg>
