<svg width="70" height="60" viewBox="0 0 100 82" fill="none" xmlns="http://www.w3.org/2000/svg">
<path d="M27.5619 0.921217C27.3476 0.710205 27.0929 0.542779 26.8125 0.428539C26.5321 0.314299 26.2315 0.255493 25.9278 0.255493C25.6242 0.255493 25.3236 0.314299 25.0432 0.428539C24.7627 0.542779 24.5081 0.710205 24.2938 0.921217L12.0515 12.8627L7.68751 8.69044C7.47319 8.47942 7.21852 8.312 6.9381 8.19776C6.65769 8.08352 6.35705 8.02471 6.05342 8.02471C5.74979 8.02471 5.44915 8.08352 5.16874 8.19776C4.88832 8.312 4.63365 8.47942 4.41933 8.69044L1.40106 11.6555C1.18599 11.8658 1.01534 12.1157 0.898908 12.3908C0.782471 12.6659 0.722534 12.9609 0.722534 13.2588C0.722534 13.5567 0.782471 13.8517 0.898908 14.1268C1.01534 14.4019 1.18599 14.6518 1.40106 14.8621L10.5501 23.8026C11.0067 24.2285 11.6127 24.466 12.2428 24.466C12.8729 24.466 13.4789 24.2285 13.9355 23.8026L16.9326 20.8564L30.8128 7.23995C31.2453 6.81531 31.4897 6.24048 31.4929 5.64018C31.4961 5.03988 31.258 4.46255 30.8301 4.03343L27.5619 0.921217ZM27.5619 30.9475C27.3476 30.7365 27.0929 30.569 26.8125 30.4548C26.5321 30.3406 26.2315 30.2818 25.9278 30.2818C25.6242 30.2818 25.3236 30.3406 25.0432 30.4548C24.7627 30.569 24.5081 30.7365 24.2938 30.9475L12.0515 42.9663L7.68751 38.7978C7.47319 38.5868 7.21852 38.4194 6.9381 38.3051C6.65769 38.1909 6.35705 38.1321 6.05342 38.1321C5.74979 38.1321 5.44915 38.1909 5.16874 38.3051C4.88832 38.4194 4.63365 38.5868 4.41933 38.7978L1.40106 41.7572C1.18599 41.9675 1.01534 42.2174 0.898908 42.4925C0.782471 42.7676 0.722534 43.0626 0.722534 43.3605C0.722534 43.6584 0.782471 43.9534 0.898908 44.2285C1.01534 44.5036 1.18599 44.7535 1.40106 44.9638L10.527 53.9232C10.9833 54.3489 11.589 54.5864 12.2188 54.5864C12.8485 54.5864 13.4542 54.3489 13.9105 53.9232L16.9288 50.9637L30.809 37.3417C31.2398 36.92 31.4833 36.3484 31.4866 35.7513C31.4898 35.1543 31.2525 34.5802 30.8263 34.154L27.5619 30.9475ZM13.0262 63.637C7.93359 63.637 3.68495 67.6923 3.68495 72.6908C3.68495 77.6892 7.93743 81.7445 13.0262 81.7445C15.4736 81.7445 17.8207 80.7906 19.5513 79.0927C21.2818 77.3948 22.254 75.0919 22.254 72.6908C22.254 70.2896 21.2818 67.9867 19.5513 66.2888C17.8207 64.5909 15.4736 63.637 13.0262 63.637ZM96.0766 66.6549H40.7097C39.8939 66.6549 39.1115 66.9729 38.5346 67.5389C37.9578 68.1048 37.6337 68.8725 37.6337 69.6728V75.7087C37.6337 76.5091 37.9578 77.2767 38.5346 77.8426C39.1115 78.4086 39.8939 78.7266 40.7097 78.7266H96.0766C96.8924 78.7266 97.6748 78.4086 98.2516 77.8426C98.8285 77.2767 99.1525 76.5091 99.1525 75.7087V69.6728C99.1525 68.8725 98.8285 68.1048 98.2516 67.5389C97.6748 66.9729 96.8924 66.6549 96.0766 66.6549ZM96.0766 6.29686H40.7097C39.8939 6.29686 39.1115 6.61482 38.5346 7.18078C37.9578 7.74675 37.6337 8.51437 37.6337 9.31476V15.3506C37.6337 16.151 37.9578 16.9186 38.5346 17.4846C39.1115 18.0505 39.8939 18.3685 40.7097 18.3685H96.0766C96.8924 18.3685 97.6748 18.0505 98.2516 17.4846C98.8285 16.9186 99.1525 16.151 99.1525 15.3506V9.31476C99.1525 8.51437 98.8285 7.74675 98.2516 7.18078C97.6748 6.61482 96.8924 6.29686 96.0766 6.29686ZM96.0766 36.4759H40.7097C39.8939 36.4759 39.1115 36.7939 38.5346 37.3598C37.9578 37.9258 37.6337 38.6934 37.6337 39.4938V45.5296C37.6337 46.33 37.9578 47.0976 38.5346 47.6636C39.1115 48.2296 39.8939 48.5475 40.7097 48.5475H96.0766C96.8924 48.5475 97.6748 48.2296 98.2516 47.6636C98.8285 47.0976 99.1525 46.33 99.1525 45.5296V39.4938C99.1525 38.6934 98.8285 37.9258 98.2516 37.3598C97.6748 36.7939 96.8924 36.4759 96.0766 36.4759Z" fill="#007AD3"/>
</svg>
