<svg width="31" height="31" viewBox="0 0 31 31" fill="none" xmlns="http://www.w3.org/2000/svg">
<path d="M29.6445 21.6991L23.0818 18.8865C22.8015 18.767 22.4899 18.7419 22.194 18.8148C21.8981 18.8877 21.6339 19.0548 21.4412 19.2908L18.5349 22.8417C13.9737 20.6911 10.303 17.0204 8.15248 12.4593L11.7033 9.55295C11.9399 9.36057 12.1073 9.09636 12.1802 8.80033C12.2532 8.50429 12.2277 8.19255 12.1076 7.9123L9.29508 1.34968C9.16331 1.04757 8.93025 0.800907 8.63609 0.652225C8.34194 0.503542 8.00512 0.462159 7.68372 0.535212L1.58986 1.94149C1.28 2.01304 1.00353 2.18751 0.805592 2.43643C0.607653 2.68534 0.499929 2.994 0.5 3.31202C0.5 18.3416 12.6819 30.5 27.688 30.5C28.0061 30.5002 28.3149 30.3925 28.5639 30.1946C28.813 29.9966 28.9875 29.7201 29.0591 29.4101L30.4654 23.3163C30.538 22.9933 30.4957 22.6552 30.3459 22.36C30.196 22.0648 29.948 21.8311 29.6445 21.6991Z" fill="#FFD600"/>
</svg>
